<svg width="21" height="22" viewBox="0 0 21 22" fill="none" xmlns="http://www.w3.org/2000/svg">
<mask id="path-1-inside-1_1_16" fill="white">
<path d="M0 5.39365C0 3.73679 1.34315 2.39365 3 2.39365H16.1964C17.8532 2.39365 19.1964 3.73679 19.1964 5.39365V18.4882C19.1964 20.1451 17.8532 21.4882 16.1964 21.4882H3C1.34315 21.4882 0 20.1451 0 18.4882V5.39365Z"/>
</mask>
<path d="M0 2.39365H19.1964H0ZM19.1964 18.4882C19.1964 21.2496 16.9578 23.4882 14.1964 23.4882H3C0.238576 23.4882 -2 21.2496 -2 18.4882H2C2 19.0405 2.44772 19.4882 3 19.4882H16.1964C17.8532 19.4882 19.1964 19.0405 19.1964 18.4882ZM3 23.4882C0.238576 23.4882 -2 21.2496 -2 18.4882V7.39365C-2 4.63222 0.238576 2.39365 3 2.39365C2.44772 2.39365 2 3.73679 2 5.39365V18.4882C2 19.0405 2.44772 19.4882 3 19.4882V23.4882ZM19.1964 2.39365V21.4882V2.39365Z" fill="black" mask="url(#path-1-inside-1_1_16)"/>
<path d="M3.5 2.85001L11.6051 2.85001" stroke="black" stroke-linecap="square"/>
<path d="M18.19 18.6C18.19 18.8761 18.4139 19.1 18.69 19.1C18.9661 19.1 19.19 18.8761 19.19 18.6H18.19ZM19.19 10.5379V10.0379H18.19V10.5379H19.19ZM19.19 18.6V10.5379H18.19V18.6H19.19Z" fill="black"/>
<path d="M18.6699 18.65C18.6699 18.8469 18.622 19.0533 18.568 19.2195C18.5064 19.409 18.3846 19.5703 18.2433 19.7108V19.7108L18.03 19.923" stroke="black"/>
<path d="M3.29304 2.85001H3.14065C2.95903 2.85001 2.77858 2.87914 2.60619 2.9363V2.9363C2.35653 3.01908 2.12951 3.15872 1.94302 3.34421L1.79999 3.48649" stroke="black"/>
<path d="M11.3202 9.41671C11.1244 9.61145 11.1244 9.92719 11.3202 10.1219C11.516 10.3167 11.8334 10.3167 12.0292 10.1219L11.3202 9.41671ZM20.5013 1.4882C20.5013 1.21279 20.2769 0.989531 20 0.989531H15.488C15.2112 0.989531 14.9867 1.21279 14.9867 1.4882C14.9867 1.76361 15.2112 1.98687 15.488 1.98687H19.4987V5.97622C19.4987 6.25163 19.7231 6.47489 20 6.47489C20.2769 6.47489 20.5013 6.25163 20.5013 5.97622V1.4882ZM12.0292 10.1219L20.3545 1.84081L19.6455 1.13559L11.3202 9.41671L12.0292 10.1219Z" fill="black"/>
</svg>
